<mxfile host="Electron" modified="2023-06-11T17:51:33.460Z" agent="Mozilla/5.0 (Windows NT 10.0; Win64; x64) AppleWebKit/537.36 (KHTML, like Gecko) draw.io/21.3.7 Chrome/112.0.5615.204 Electron/24.5.0 Safari/537.36" etag="cZqVMsgp-4xeky6ctCsw" version="21.3.7" type="device">
  <diagram id="C5RBs43oDa-KdzZeNtuy" name="Page-1">
    <mxGraphModel dx="1884" dy="1102" grid="1" gridSize="10" guides="1" tooltips="1" connect="1" arrows="1" fold="1" page="1" pageScale="1" pageWidth="1654" pageHeight="2336" math="0" shadow="0">
      <root>
        <mxCell id="WIyWlLk6GJQsqaUBKTNV-0" />
        <mxCell id="WIyWlLk6GJQsqaUBKTNV-1" parent="WIyWlLk6GJQsqaUBKTNV-0" />
        <mxCell id="3zz8hmTe3u4Tq_deE7TS-0" value="&lt;p style=&quot;margin:0px;margin-top:4px;text-align:center;text-decoration:underline;&quot;&gt;Create Order&lt;/p&gt;&lt;hr&gt;&lt;p style=&quot;margin:0px;margin-left:8px;&quot;&gt;&lt;br&gt;&lt;/p&gt;" style="verticalAlign=top;align=left;overflow=fill;fontSize=12;fontFamily=Helvetica;html=1;whiteSpace=wrap;" vertex="1" parent="WIyWlLk6GJQsqaUBKTNV-1">
          <mxGeometry x="380" y="320" width="650" height="700" as="geometry" />
        </mxCell>
        <mxCell id="3zz8hmTe3u4Tq_deE7TS-1" value="" style="ellipse;html=1;shape=startState;fillColor=#000000;strokeColor=#ff0000;" vertex="1" parent="WIyWlLk6GJQsqaUBKTNV-1">
          <mxGeometry x="390" y="370" width="30" height="30" as="geometry" />
        </mxCell>
        <mxCell id="3zz8hmTe3u4Tq_deE7TS-2" value="" style="edgeStyle=orthogonalEdgeStyle;html=1;verticalAlign=bottom;endArrow=open;endSize=8;strokeColor=#ff0000;rounded=0;entryX=0;entryY=0.5;entryDx=0;entryDy=0;" edge="1" source="3zz8hmTe3u4Tq_deE7TS-1" parent="WIyWlLk6GJQsqaUBKTNV-1" target="3zz8hmTe3u4Tq_deE7TS-3">
          <mxGeometry relative="1" as="geometry">
            <mxPoint x="785" y="380" as="targetPoint" />
          </mxGeometry>
        </mxCell>
        <mxCell id="3zz8hmTe3u4Tq_deE7TS-6" style="edgeStyle=orthogonalEdgeStyle;rounded=0;orthogonalLoop=1;jettySize=auto;html=1;exitX=0.5;exitY=1;exitDx=0;exitDy=0;entryX=0.5;entryY=0;entryDx=0;entryDy=0;" edge="1" parent="WIyWlLk6GJQsqaUBKTNV-1" source="3zz8hmTe3u4Tq_deE7TS-3" target="3zz8hmTe3u4Tq_deE7TS-5">
          <mxGeometry relative="1" as="geometry" />
        </mxCell>
        <mxCell id="3zz8hmTe3u4Tq_deE7TS-3" value="&lt;p class=&quot;MsoNormal&quot;&gt;Show all products&lt;/p&gt;" style="rounded=1;whiteSpace=wrap;html=1;arcSize=40;fontColor=#000000;fillColor=#ffffc0;strokeColor=#ff0000;" vertex="1" parent="WIyWlLk6GJQsqaUBKTNV-1">
          <mxGeometry x="490" y="365" width="120" height="40" as="geometry" />
        </mxCell>
        <mxCell id="3zz8hmTe3u4Tq_deE7TS-24" style="edgeStyle=orthogonalEdgeStyle;rounded=0;orthogonalLoop=1;jettySize=auto;html=1;exitX=0.5;exitY=1;exitDx=0;exitDy=0;" edge="1" parent="WIyWlLk6GJQsqaUBKTNV-1" source="3zz8hmTe3u4Tq_deE7TS-5" target="3zz8hmTe3u4Tq_deE7TS-23">
          <mxGeometry relative="1" as="geometry" />
        </mxCell>
        <mxCell id="3zz8hmTe3u4Tq_deE7TS-5" value="&lt;p class=&quot;MsoNormal&quot;&gt;Enter the productID&lt;/p&gt;" style="rounded=1;whiteSpace=wrap;html=1;arcSize=40;fontColor=#000000;fillColor=#ffffc0;strokeColor=#ff0000;" vertex="1" parent="WIyWlLk6GJQsqaUBKTNV-1">
          <mxGeometry x="490" y="440" width="120" height="40" as="geometry" />
        </mxCell>
        <mxCell id="3zz8hmTe3u4Tq_deE7TS-12" style="edgeStyle=orthogonalEdgeStyle;rounded=0;orthogonalLoop=1;jettySize=auto;html=1;exitX=1;exitY=0.5;exitDx=0;exitDy=0;entryX=0;entryY=0.5;entryDx=0;entryDy=0;" edge="1" parent="WIyWlLk6GJQsqaUBKTNV-1" source="3zz8hmTe3u4Tq_deE7TS-7" target="3zz8hmTe3u4Tq_deE7TS-11">
          <mxGeometry relative="1" as="geometry" />
        </mxCell>
        <mxCell id="3zz8hmTe3u4Tq_deE7TS-13" value="[ID not exists in DB]" style="edgeLabel;html=1;align=center;verticalAlign=middle;resizable=0;points=[];" vertex="1" connectable="0" parent="3zz8hmTe3u4Tq_deE7TS-12">
          <mxGeometry x="-0.3064" relative="1" as="geometry">
            <mxPoint x="15" y="-20" as="offset" />
          </mxGeometry>
        </mxCell>
        <mxCell id="3zz8hmTe3u4Tq_deE7TS-15" style="edgeStyle=orthogonalEdgeStyle;rounded=0;orthogonalLoop=1;jettySize=auto;html=1;exitX=0.5;exitY=1;exitDx=0;exitDy=0;" edge="1" parent="WIyWlLk6GJQsqaUBKTNV-1" source="3zz8hmTe3u4Tq_deE7TS-7" target="3zz8hmTe3u4Tq_deE7TS-14">
          <mxGeometry relative="1" as="geometry" />
        </mxCell>
        <mxCell id="3zz8hmTe3u4Tq_deE7TS-18" value="[ID is exists in DB]" style="edgeLabel;html=1;align=center;verticalAlign=middle;resizable=0;points=[];" vertex="1" connectable="0" parent="3zz8hmTe3u4Tq_deE7TS-15">
          <mxGeometry x="-0.2486" y="-1" relative="1" as="geometry">
            <mxPoint x="51" as="offset" />
          </mxGeometry>
        </mxCell>
        <mxCell id="3zz8hmTe3u4Tq_deE7TS-7" value="" style="rhombus;whiteSpace=wrap;html=1;fontColor=#000000;fillColor=#ffffc0;strokeColor=#ff0000;" vertex="1" parent="WIyWlLk6GJQsqaUBKTNV-1">
          <mxGeometry x="505" y="620" width="90" height="70" as="geometry" />
        </mxCell>
        <mxCell id="3zz8hmTe3u4Tq_deE7TS-36" style="edgeStyle=orthogonalEdgeStyle;rounded=0;orthogonalLoop=1;jettySize=auto;html=1;exitX=1;exitY=0.5;exitDx=0;exitDy=0;entryX=0.496;entryY=0.836;entryDx=0;entryDy=0;entryPerimeter=0;" edge="1" parent="WIyWlLk6GJQsqaUBKTNV-1" source="3zz8hmTe3u4Tq_deE7TS-11" target="3zz8hmTe3u4Tq_deE7TS-32">
          <mxGeometry relative="1" as="geometry" />
        </mxCell>
        <mxCell id="3zz8hmTe3u4Tq_deE7TS-11" value="&lt;p class=&quot;MsoNormal&quot;&gt;Show &quot;ID not found&quot;&lt;/p&gt;" style="rounded=1;whiteSpace=wrap;html=1;arcSize=40;fontColor=#000000;fillColor=#ffffc0;strokeColor=#ff0000;" vertex="1" parent="WIyWlLk6GJQsqaUBKTNV-1">
          <mxGeometry x="707" y="635" width="120" height="40" as="geometry" />
        </mxCell>
        <mxCell id="3zz8hmTe3u4Tq_deE7TS-17" style="edgeStyle=orthogonalEdgeStyle;rounded=0;orthogonalLoop=1;jettySize=auto;html=1;exitX=0.5;exitY=1;exitDx=0;exitDy=0;entryX=0.5;entryY=0;entryDx=0;entryDy=0;" edge="1" parent="WIyWlLk6GJQsqaUBKTNV-1" source="3zz8hmTe3u4Tq_deE7TS-14" target="3zz8hmTe3u4Tq_deE7TS-16">
          <mxGeometry relative="1" as="geometry" />
        </mxCell>
        <mxCell id="3zz8hmTe3u4Tq_deE7TS-14" value="&lt;p class=&quot;MsoNormal&quot;&gt;Create Order&lt;/p&gt;" style="rounded=1;whiteSpace=wrap;html=1;arcSize=40;fontColor=#000000;fillColor=#ffffc0;strokeColor=#ff0000;" vertex="1" parent="WIyWlLk6GJQsqaUBKTNV-1">
          <mxGeometry x="490" y="730" width="120" height="40" as="geometry" />
        </mxCell>
        <mxCell id="3zz8hmTe3u4Tq_deE7TS-20" style="edgeStyle=orthogonalEdgeStyle;rounded=0;orthogonalLoop=1;jettySize=auto;html=1;exitX=0.5;exitY=1;exitDx=0;exitDy=0;" edge="1" parent="WIyWlLk6GJQsqaUBKTNV-1" source="3zz8hmTe3u4Tq_deE7TS-16" target="3zz8hmTe3u4Tq_deE7TS-19">
          <mxGeometry relative="1" as="geometry" />
        </mxCell>
        <mxCell id="3zz8hmTe3u4Tq_deE7TS-16" value="&lt;p class=&quot;MsoNormal&quot;&gt;Buy one more Product&lt;/p&gt;" style="rounded=1;whiteSpace=wrap;html=1;arcSize=40;fontColor=#000000;fillColor=#ffffc0;strokeColor=#ff0000;" vertex="1" parent="WIyWlLk6GJQsqaUBKTNV-1">
          <mxGeometry x="490" y="800" width="120" height="40" as="geometry" />
        </mxCell>
        <mxCell id="3zz8hmTe3u4Tq_deE7TS-22" style="edgeStyle=orthogonalEdgeStyle;rounded=0;orthogonalLoop=1;jettySize=auto;html=1;exitX=0.5;exitY=1;exitDx=0;exitDy=0;entryX=0.5;entryY=0;entryDx=0;entryDy=0;" edge="1" parent="WIyWlLk6GJQsqaUBKTNV-1" source="3zz8hmTe3u4Tq_deE7TS-19" target="3zz8hmTe3u4Tq_deE7TS-21">
          <mxGeometry relative="1" as="geometry" />
        </mxCell>
        <mxCell id="3zz8hmTe3u4Tq_deE7TS-43" value="[No]" style="edgeLabel;html=1;align=center;verticalAlign=middle;resizable=0;points=[];" vertex="1" connectable="0" parent="3zz8hmTe3u4Tq_deE7TS-22">
          <mxGeometry x="-0.2882" relative="1" as="geometry">
            <mxPoint x="15" as="offset" />
          </mxGeometry>
        </mxCell>
        <mxCell id="3zz8hmTe3u4Tq_deE7TS-37" style="edgeStyle=orthogonalEdgeStyle;rounded=0;orthogonalLoop=1;jettySize=auto;html=1;exitX=1;exitY=0.5;exitDx=0;exitDy=0;entryX=0.734;entryY=0.805;entryDx=0;entryDy=0;entryPerimeter=0;" edge="1" parent="WIyWlLk6GJQsqaUBKTNV-1" source="3zz8hmTe3u4Tq_deE7TS-19" target="3zz8hmTe3u4Tq_deE7TS-32">
          <mxGeometry relative="1" as="geometry" />
        </mxCell>
        <mxCell id="3zz8hmTe3u4Tq_deE7TS-42" value="[Yes]" style="edgeLabel;html=1;align=center;verticalAlign=middle;resizable=0;points=[];" vertex="1" connectable="0" parent="3zz8hmTe3u4Tq_deE7TS-37">
          <mxGeometry x="-0.8826" relative="1" as="geometry">
            <mxPoint x="-2" y="-15" as="offset" />
          </mxGeometry>
        </mxCell>
        <mxCell id="3zz8hmTe3u4Tq_deE7TS-19" value="" style="rhombus;whiteSpace=wrap;html=1;fontColor=#000000;fillColor=#ffffc0;strokeColor=#ff0000;" vertex="1" parent="WIyWlLk6GJQsqaUBKTNV-1">
          <mxGeometry x="505" y="870" width="90" height="70" as="geometry" />
        </mxCell>
        <mxCell id="3zz8hmTe3u4Tq_deE7TS-21" value="" style="ellipse;html=1;shape=endState;fillColor=#000000;strokeColor=#ff0000;" vertex="1" parent="WIyWlLk6GJQsqaUBKTNV-1">
          <mxGeometry x="535" y="980" width="30" height="30" as="geometry" />
        </mxCell>
        <mxCell id="3zz8hmTe3u4Tq_deE7TS-25" style="edgeStyle=orthogonalEdgeStyle;rounded=0;orthogonalLoop=1;jettySize=auto;html=1;exitX=0.5;exitY=1;exitDx=0;exitDy=0;entryX=0.5;entryY=0;entryDx=0;entryDy=0;" edge="1" parent="WIyWlLk6GJQsqaUBKTNV-1" source="3zz8hmTe3u4Tq_deE7TS-23" target="3zz8hmTe3u4Tq_deE7TS-7">
          <mxGeometry relative="1" as="geometry" />
        </mxCell>
        <mxCell id="3zz8hmTe3u4Tq_deE7TS-29" value="[ID&amp;gt;0]" style="edgeLabel;html=1;align=center;verticalAlign=middle;resizable=0;points=[];" vertex="1" connectable="0" parent="3zz8hmTe3u4Tq_deE7TS-25">
          <mxGeometry x="-0.2315" y="-1" relative="1" as="geometry">
            <mxPoint x="21" as="offset" />
          </mxGeometry>
        </mxCell>
        <mxCell id="3zz8hmTe3u4Tq_deE7TS-27" style="edgeStyle=orthogonalEdgeStyle;rounded=0;orthogonalLoop=1;jettySize=auto;html=1;exitX=1;exitY=0.5;exitDx=0;exitDy=0;entryX=0;entryY=0.5;entryDx=0;entryDy=0;" edge="1" parent="WIyWlLk6GJQsqaUBKTNV-1" source="3zz8hmTe3u4Tq_deE7TS-23" target="3zz8hmTe3u4Tq_deE7TS-26">
          <mxGeometry relative="1" as="geometry" />
        </mxCell>
        <mxCell id="3zz8hmTe3u4Tq_deE7TS-28" value="[ID&amp;lt;=0]" style="edgeLabel;html=1;align=center;verticalAlign=middle;resizable=0;points=[];" vertex="1" connectable="0" parent="3zz8hmTe3u4Tq_deE7TS-27">
          <mxGeometry x="-0.175" y="1" relative="1" as="geometry">
            <mxPoint y="-14" as="offset" />
          </mxGeometry>
        </mxCell>
        <mxCell id="3zz8hmTe3u4Tq_deE7TS-23" value="" style="rhombus;whiteSpace=wrap;html=1;fontColor=#000000;fillColor=#ffffc0;strokeColor=#ff0000;" vertex="1" parent="WIyWlLk6GJQsqaUBKTNV-1">
          <mxGeometry x="505" y="510" width="90" height="70" as="geometry" />
        </mxCell>
        <mxCell id="3zz8hmTe3u4Tq_deE7TS-35" style="edgeStyle=orthogonalEdgeStyle;rounded=0;orthogonalLoop=1;jettySize=auto;html=1;exitX=1;exitY=0.5;exitDx=0;exitDy=0;entryX=0.261;entryY=0.831;entryDx=0;entryDy=0;entryPerimeter=0;" edge="1" parent="WIyWlLk6GJQsqaUBKTNV-1" source="3zz8hmTe3u4Tq_deE7TS-26" target="3zz8hmTe3u4Tq_deE7TS-32">
          <mxGeometry relative="1" as="geometry" />
        </mxCell>
        <mxCell id="3zz8hmTe3u4Tq_deE7TS-26" value="Show&quot; Error ID&quot;" style="rounded=1;whiteSpace=wrap;html=1;arcSize=40;fontColor=#000000;fillColor=#ffffc0;strokeColor=#ff0000;" vertex="1" parent="WIyWlLk6GJQsqaUBKTNV-1">
          <mxGeometry x="707" y="525" width="120" height="40" as="geometry" />
        </mxCell>
        <mxCell id="3zz8hmTe3u4Tq_deE7TS-32" value="" style="shape=line;html=1;strokeWidth=6;strokeColor=#ff0000;" vertex="1" parent="WIyWlLk6GJQsqaUBKTNV-1">
          <mxGeometry x="890" y="470" width="120" height="10" as="geometry" />
        </mxCell>
        <mxCell id="3zz8hmTe3u4Tq_deE7TS-41" value="" style="edgeStyle=orthogonalEdgeStyle;html=1;verticalAlign=bottom;endArrow=open;endSize=8;strokeColor=#ff0000;rounded=0;exitX=0.481;exitY=0.324;exitDx=0;exitDy=0;exitPerimeter=0;entryX=1;entryY=0.5;entryDx=0;entryDy=0;" edge="1" source="3zz8hmTe3u4Tq_deE7TS-32" parent="WIyWlLk6GJQsqaUBKTNV-1" target="3zz8hmTe3u4Tq_deE7TS-3">
          <mxGeometry relative="1" as="geometry">
            <mxPoint x="940" y="590" as="targetPoint" />
            <mxPoint x="940.0400000000002" y="520" as="sourcePoint" />
            <Array as="points">
              <mxPoint x="947" y="385" />
            </Array>
          </mxGeometry>
        </mxCell>
      </root>
    </mxGraphModel>
  </diagram>
</mxfile>
